<svg width="121" height="121" viewBox="0 0 121 121" fill="none" xmlns="http://www.w3.org/2000/svg">
<path d="M46.6354 110.917L44.6187 94.7835C43.5264 94.3634 42.497 93.8592 41.5307 93.271C40.5644 92.6828 39.6191 92.0526 38.6948 91.3804L23.6958 97.6824L9.83124 73.7345L22.8135 63.9033C22.7295 63.3151 22.6875 62.7479 22.6875 62.2017V58.7986C22.6875 58.2524 22.7295 57.6852 22.8135 57.097L9.83124 47.2658L23.6958 23.3179L38.6948 29.62C39.6191 28.9477 40.5854 28.3175 41.5937 27.7293C42.6021 27.1411 43.6104 26.637 44.6187 26.2168L46.6354 10.0835H74.3646L76.3812 26.2168C77.4736 26.637 78.5029 27.1411 79.4693 27.7293C80.4356 28.3175 81.3809 28.9477 82.3052 29.62L97.3042 23.3179L111.169 47.2658L98.1864 57.097C98.2705 57.6852 98.3125 58.2524 98.3125 58.7986V62.2017C98.3125 62.7479 98.2285 63.3151 98.0604 63.9033L111.043 73.7345L97.1781 97.6824L82.3052 91.3804C81.3809 92.0526 80.4146 92.6828 79.4062 93.271C78.3979 93.8592 77.3896 94.3634 76.3812 94.7835L74.3646 110.917H46.6354ZM60.7521 78.146C65.6257 78.146 69.7851 76.4234 73.2302 72.9783C76.6753 69.5331 78.3979 65.3738 78.3979 60.5002C78.3979 55.6265 76.6753 51.4672 73.2302 48.022C69.7851 44.5769 65.6257 42.8543 60.7521 42.8543C55.7944 42.8543 51.6141 44.5769 48.2109 48.022C44.8078 51.4672 43.1062 55.6265 43.1062 60.5002C43.1062 65.3738 44.8078 69.5331 48.2109 72.9783C51.6141 76.4234 55.7944 78.146 60.7521 78.146Z" fill="white"/>
</svg>
