<svg width="124" height="124" viewBox="0 0 124 124" fill="none" xmlns="http://www.w3.org/2000/svg">
<path d="M43.4 87.8335L62 69.2335L80.6 87.8335L87.8334 80.6002L69.2334 62.0002L87.8334 43.4002L80.6 36.1668L62 54.7668L43.4 36.1668L36.1667 43.4002L54.7667 62.0002L36.1667 80.6002L43.4 87.8335ZM62 113.667C54.8528 113.667 48.1362 112.311 41.85 109.598C35.5639 106.886 30.0959 103.204 25.4459 98.5543C20.7959 93.9043 17.1146 88.4363 14.4021 82.1502C11.6896 75.8641 10.3334 69.1474 10.3334 62.0002C10.3334 54.8529 11.6896 48.1363 14.4021 41.8502C17.1146 35.5641 20.7959 30.096 25.4459 25.446C30.0959 20.796 35.5639 17.1147 41.85 14.4022C48.1362 11.6897 54.8528 10.3335 62 10.3335C69.1473 10.3335 75.8639 11.6897 82.15 14.4022C88.4361 17.1147 93.9042 20.796 98.5542 25.446C103.204 30.096 106.885 35.5641 109.598 41.8502C112.31 48.1363 113.667 54.8529 113.667 62.0002C113.667 69.1474 112.31 75.8641 109.598 82.1502C106.885 88.4363 103.204 93.9043 98.5542 98.5543C93.9042 103.204 88.4361 106.886 82.15 109.598C75.8639 112.311 69.1473 113.667 62 113.667ZM62 103.333C73.5389 103.333 83.3125 99.3293 91.3209 91.321C99.3292 83.3127 103.333 73.5391 103.333 62.0002C103.333 50.4613 99.3292 40.6877 91.3209 32.6793C83.3125 24.671 73.5389 20.6668 62 20.6668C50.4612 20.6668 40.6875 24.671 32.6792 32.6793C24.6709 40.6877 20.6667 50.4613 20.6667 62.0002C20.6667 73.5391 24.6709 83.3127 32.6792 91.321C40.6875 99.3293 50.4612 103.333 62 103.333Z" fill="white"/>
</svg>
